<!-- Generated by IcoMoon.io -->
<svg version="1.1" xmlns="http://www.w3.org/2000/svg" width="32" height="32" viewBox="0 0 32 32">
<path d="M32 24.786c-0.964 0.365-2.047-0.052-2.526-0.964l-4.599-6.359-0.667-0.891-5.339 7.26c-0.448 0.875-1.479 1.276-2.401 0.943l6.875-9.229-6.396-8.333c0.948-0.339 2.005 0.031 2.531 0.891l4.771 6.438 4.792-6.411c0.453-0.859 1.479-1.245 2.385-0.891l-2.484 3.292-3.359 4.38c-0.193 0.167-0.297 0.406-0.297 0.661s0.104 0.495 0.297 0.661l6.401 8.552zM0.005 15.432l0.557-2.766c1.536-5.469 7.813-7.745 12.125-4.359 2.526 1.984 3.156 4.797 3.031 7.964h-14.229c-0.234 5.656 3.849 9.073 9.073 7.328 1.719-0.62 3.010-2.057 3.443-3.833 0.276-0.891 0.729-1.042 1.563-0.786-0.281 2.198-1.552 4.141-3.453 5.276-3.172 1.74-7.104 1.234-9.74-1.24-1.271-1.432-2.036-3.24-2.188-5.146 0-0.313-0.104-0.609-0.177-0.891-0.005-0.51-0.010-1.026-0.010-1.542zM1.505 15.052h12.87c-0.078-4.099-2.667-7.010-6.12-7.036-3.839-0.052-6.589 2.792-6.76 7.021z"></path>
</svg>
