<!-- Generated by IcoMoon.io -->
<svg version="1.1" xmlns="http://www.w3.org/2000/svg" width="32" height="32" viewBox="0 0 32 32">
<path fill="#3d9284" d="M32 16c0 8.837-7.163 16-16 16s-16-7.163-16-16c0-8.837 7.163-16 16-16s16 7.163 16 16z"></path>
<path fill="#fbfbfb" d="M21.066 8.251c2.036 0.483 3.295 2.524 2.812 4.56s-2.524 3.295-4.56 2.812c-2.036-0.483-3.295-2.524-2.812-4.56s2.524-3.295 4.56-2.812z"></path>
<path fill="#fbfbfb" d="M12.794 25.789v0c-1.465 0-2.653-1.188-2.653-2.653v0-12.854c0-1.465 1.188-2.653 2.653-2.653v0 0c1.465 0 2.653 1.188 2.653 2.653v0 12.847c0 0.002 0 0.005 0 0.007 0 1.465-1.188 2.653-2.653 2.653 0 0 0 0 0 0v0z"></path>
</svg>
